/* XPM */
static const char *down_xpm[]={
"28 20 4 1",
". c None",
"a c #808080",
"b c #c0c0c0",
"# c #ffffff",
"............................",
"............................",
"............................",
".#########################a.",
".#bbbbbbbbbbbbbbbbbbbbbbbba.",
"..bbbbbbbbbbbbbbbbbbbbbbbba.",
"...bbbbbbbbbbbbbbbbbbbbbbaa.",
"....bbbbbbbbbbbbbbbbbbbbaa..",
".....bbbbbbbbbbbbbbbbbbaa...",
"......bbbbbbbbbbbbbbbbaa....",
".......bbbbbbbbbbbbbbaa.....",
"........bbbbbbbbbbbbaa......",
".........bbbbbbbbbbaa.......",
"..........bbbbbbbbaa........",
"...........bbbbbbaa.........",
"............bbbbaa..........",
".............bbaa...........",
"..............aa............",
"............................",
"............................"};
