/* XPM */
static const char * drsosc_xpm[] = {
"64 64 624 2",
"  	c None",
". 	c #DDDDDD",
"+ 	c #E4E4E4",
"@ 	c #EBEBEB",
"# 	c #EFEFEF",
"$ 	c #ECECEC",
"% 	c #EAEAEA",
"& 	c #E9E9E9",
"* 	c #E7E7E7",
"= 	c #E6E6E6",
"- 	c #E5E5E5",
"; 	c #E3E3E3",
"> 	c #E2E2E2",
", 	c #E1E1E1",
"' 	c #E0E0E0",
") 	c #DFDFDF",
"! 	c #DCDCDC",
"~ 	c #DBDBDB",
"{ 	c #DADADA",
"] 	c #D8D8D8",
"^ 	c #D7D7D7",
"/ 	c #D6D6D6",
"( 	c #D5D5D5",
"_ 	c #D4D4D4",
": 	c #D3D3D3",
"< 	c #D2D2D2",
"[ 	c #D1D1D1",
"} 	c #D0D0D0",
"| 	c #CFCFCF",
"1 	c #CECECE",
"2 	c #CDCDCD",
"3 	c #CCCCCC",
"4 	c #C6C6C6",
"5 	c #C0C0C0",
"6 	c #B6B6B6",
"7 	c #F4F4F4",
"8 	c #F0F0F0",
"9 	c #EEEEEE",
"0 	c #EDEDED",
"a 	c #E8E8E8",
"b 	c #E3E2E2",
"c 	c #DEDEDE",
"d 	c #D9D9D9",
"e 	c #D6D7D7",
"f 	c #CACACA",
"g 	c #C8C8C9",
"h 	c #C9C9C9",
"i 	c #B2B2B2",
"j 	c #E7E7E8",
"k 	c #C2C2C2",
"l 	c #C1C1C1",
"m 	c #BFBFBF",
"n 	c #BEBEBE",
"o 	c #BDBDBD",
"p 	c #BCBCBC",
"q 	c #BABBBB",
"r 	c #BABABA",
"s 	c #B9B9B9",
"t 	c #B7B7B7",
"u 	c #B5B5B5",
"v 	c #B4B4B4",
"w 	c #B3B3B3",
"x 	c #B1B1B1",
"y 	c #B0B0B0",
"z 	c #AEAEAE",
"A 	c #ACACAC",
"B 	c #ABABAB",
"C 	c #ADADAD",
"D 	c #A8A8A8",
"E 	c #A7A7A7",
"F 	c #A5A5A5",
"G 	c #A4A4A4",
"H 	c #A3A3A3",
"I 	c #A0A0A0",
"J 	c #9E9E9E",
"K 	c #9D9D9D",
"L 	c #9C9C9C",
"M 	c #9B9B9B",
"N 	c #999999",
"O 	c #979797",
"P 	c #969696",
"Q 	c #949494",
"R 	c #939393",
"S 	c #929292",
"T 	c #919191",
"U 	c #909090",
"V 	c #8E8E8E",
"W 	c #BBBBBB",
"X 	c #C4C4C4",
"Y 	c #C3C3C3",
"Z 	c #BCBCBB",
"` 	c #959595",
" .	c #8D8D8D",
"..	c #8C8C8C",
"+.	c #8A8A8A",
"@.	c #888888",
"#.	c #858585",
"$.	c #838383",
"%.	c #808080",
"&.	c #7E7E7E",
"*.	c #7C7C7C",
"=.	c #797979",
"-.	c #777777",
";.	c #757575",
">.	c #737373",
",.	c #707070",
"'.	c #6E6E6E",
").	c #6C6C6C",
"!.	c #696969",
"~.	c #666666",
"{.	c #646464",
"].	c #5F5F5F",
"^.	c #787878",
"/.	c #6B6B6B",
"(.	c #575757",
"_.	c #565656",
":.	c #535353",
"<.	c #505050",
"[.	c #4D4D4D",
"}.	c #4B4B4B",
"|.	c #484848",
"1.	c #454545",
"2.	c #424242",
"3.	c #404040",
"4.	c #3D3D3D",
"5.	c #3A3A3A",
"6.	c #373737",
"7.	c #343434",
"8.	c #303030",
"9.	c #2D2D2D",
"0.	c #2A2A2A",
"a.	c #272727",
"b.	c #242424",
"c.	c #202020",
"d.	c #1E1E1E",
"e.	c #1B1B1B",
"f.	c #363636",
"g.	c #828282",
"h.	c #B7B6B6",
"i.	c #8F8F8F",
"j.	c #8B8B8B",
"k.	c #878787",
"l.	c #848484",
"m.	c #818181",
"n.	c #7F7F7F",
"o.	c #7B7B7B",
"p.	c #767676",
"q.	c #747474",
"r.	c #717171",
"s.	c #6A6A6A",
"t.	c #676767",
"u.	c #6D6D6D",
"v.	c #5C5C5C",
"w.	c #5A5A5A",
"x.	c #585858",
"y.	c #555555",
"z.	c #525252",
"A.	c #4A4A4A",
"B.	c #434343",
"C.	c #414141",
"D.	c #3F3F3F",
"E.	c #3C3C3C",
"F.	c #383838",
"G.	c #333333",
"H.	c #2C2C2C",
"I.	c #292929",
"J.	c #262626",
"K.	c #232323",
"L.	c #161616",
"M.	c #131313",
"N.	c #2E2E2E",
"O.	c #868686",
"P.	c #7A7A7A",
"Q.	c #626262",
"R.	c #515151",
"S.	c #4C4C4C",
"T.	c #494949",
"U.	c #474747",
"V.	c #444444",
"W.	c #3E3E3E",
"X.	c #393939",
"Y.	c #323232",
"Z.	c #282828",
"`.	c #252525",
" +	c #222222",
".+	c #1C1C1C",
"++	c #191919",
"@+	c #111111",
"#+	c #0E0E0E",
"$+	c #898989",
"%+	c #727272",
"&+	c #5B5B5B",
"*+	c #545454",
"=+	c #4F4F4F",
"-+	c #464646",
";+	c #3B3B3B",
">+	c #313131",
",+	c #2F2F2F",
"'+	c #181818",
")+	c #121212",
"!+	c #0B0B0B",
"~+	c #494948",
"{+	c #AFAFAF",
"]+	c #7D7D7D",
"^+	c #686868",
"/+	c #656565",
"(+	c #616161",
"_+	c #4E4E4E",
":+	c #353535",
"<+	c #2B2B2B",
"[+	c #0F0F0F",
"}+	c #020202",
"|+	c #AAAAAA",
"1+	c #989898",
"2+	c #C7C7C7",
"3+	c #606060",
"4+	c #212121",
"5+	c #1D1D1D",
"6+	c #151515",
"7+	c #040404",
"8+	c #ABACAC",
"9+	c #6F6F6F",
"0+	c #636363",
"a+	c #595959",
"b+	c #3A383B",
"c+	c #363138",
"d+	c #363536",
"e+	c #322E33",
"f+	c #2D292F",
"g+	c #2C2A2D",
"h+	c #1A1A1A",
"i+	c #171717",
"j+	c #101010",
"k+	c #080808",
"l+	c #CBCBCB",
"m+	c #5D5D5D",
"n+	c #403E40",
"o+	c #3C3A3D",
"p+	c #4F843B",
"q+	c #4E8737",
"r+	c #477933",
"s+	c #477C32",
"t+	c #49872E",
"u+	c #3A5D2B",
"v+	c #251E28",
"w+	c #1F1F1F",
"x+	c #141414",
"y+	c #0D0D0D",
"z+	c #070707",
"A+	c #A2A2A2",
"B+	c #403D41",
"C+	c #475B3F",
"D+	c #54943C",
"E+	c #39393A",
"F+	c #353137",
"G+	c #333134",
"H+	c #302D31",
"I+	c #2B242E",
"J+	c #344C2B",
"K+	c #478F27",
"L+	c #232025",
"M+	c #222122",
"N+	c #0C0C0C",
"O+	c #424043",
"P+	c #4B6540",
"Q+	c #4F7D3D",
"R+	c #38313B",
"S+	c #29282A",
"T+	c #242126",
"U+	c #469525",
"V+	c #212021",
"W+	c #1D1D1E",
"X+	c #444344",
"Y+	c #485841",
"Z+	c #51823F",
"`+	c #39343C",
" @	c #201A22",
".@	c #42931F",
"+@	c #1A131C",
"@@	c #AEADAD",
"#@	c #A9A9A9",
"$@	c #599840",
"%@	c #3A333D",
"&@	c #1F211F",
"*@	c #3B821B",
"=@	c #160F19",
"-@	c #060606",
";@	c #5E5E5E",
">@	c #423C44",
",@	c #599541",
"'@	c #3C393E",
")@	c #1C1A1D",
"!@	c #27471A",
"~@	c #294E17",
"{@	c #141215",
"]@	c #090909",
"^@	c #050505",
"/@	c #4B6542",
"(@	c #4A6640",
"_@	c #3C3B3C",
":@	c #160F18",
"<@	c #377F16",
"[@	c #131014",
"}@	c #0A0A0A",
"|@	c #A1A1A1",
"1@	c #403942",
"2@	c #579740",
"3@	c #3B353D",
"4@	c #151415",
"5@	c #317512",
"6@	c #0E0910",
"7@	c #030303",
"8@	c #424042",
"9@	c #507A40",
"0@	c #424D3E",
"a@	c #2C6412",
"b@	c #131B0F",
"c@	c #A0A1A0",
"d@	c #3F3941",
"e@	c #55903F",
"f@	c #3A363C",
"g@	c #0E0811",
"h@	c #30790E",
"i@	c #08030A",
"j@	c #403F41",
"k@	c #4E783F",
"l@	c #404A3D",
"m@	c #3B3A3B",
"n@	c #0E0C0F",
"o@	c #255D0C",
"p@	c #0E180A",
"q@	c #080708",
"r@	c #8D8C8D",
"s@	c #3D363F",
"t@	c #538F3D",
"u@	c #39343A",
"v@	c #09040B",
"w@	c #2A7109",
"x@	c #040006",
"y@	c #3F3D3F",
"z@	c #48653D",
"A@	c #43593B",
"B@	c #383738",
"C@	c #080509",
"D@	c #266809",
"E@	c #050405",
"F@	c #010101",
"G@	c #3F3F3E",
"H@	c #3B363C",
"I@	c #518D3B",
"J@	c #362F38",
"K@	c #0A090A",
"L@	c #090E07",
"M@	c #205C05",
"N@	c #020004",
"O@	c #7C7C7D",
"P@	c #3D433B",
"Q@	c #487538",
"R@	c #353436",
"S@	c #030006",
"T@	c #267105",
"U@	c #000003",
"V@	c #39373A",
"W@	c #4C8139",
"X@	c #353336",
"Y@	c #040204",
"Z@	c #143804",
"`@	c #0F2C02",
" #	c #000000",
".#	c #352F37",
"+#	c #4B8736",
"@#	c #332F34",
"##	c #226A01",
"$#	c #454445",
"%#	c #3D5435",
"&#	c #3E5B33",
"*#	c #313032",
"=#	c #000002",
"-#	c #206600",
";#	c #423F43",
">#	c #488233",
",#	c #2F2931",
"'#	c #091F00",
")#	c #103B00",
"!#	c #131214",
"~#	c #3E3940",
"{#	c #468031",
"]#	c #2E2B2F",
"^#	c #1E6800",
"/#	c #4E4D4E",
"(#	c #48623F",
"_#	c #37502E",
":#	c #2C2B2C",
"<#	c #175D00",
"[#	c #0B050D",
"}#	c #4A474B",
"|#	c #50883C",
"1#	c #29232B",
"2#	c #082400",
"3#	c #183C0C",
"4#	c #323032",
"5#	c #575857",
"6#	c #767576",
"7#	c #48434A",
"8#	c #4C7F39",
"9#	c #353236",
"0#	c #09030C",
"a#	c #2D6D15",
"b#	c #2D2A2E",
"c#	c #545254",
"d#	c #859D7D",
"e#	c #6D6A6E",
"f#	c #605F60",
"g#	c #697464",
"h#	c #677961",
"i#	c #5C5C5D",
"j#	c #3D3C3D",
"k#	c #313F2C",
"l#	c #262526",
"m#	c #6B8C5F",
"n#	c #3E4B3A",
"o#	c #262427",
"p#	c #4F7D3E",
"q#	c #312E32",
"r#	c #040304",
"s#	c #1A1A19",
"t#	c #575657",
"u#	c #4B7C3A",
"v#	c #3B393B",
"w#	c #2A2B2A",
"x#	c #241E26",
"y#	c #589343",
"z#	c #312D32",
"A#	c #565158",
"B#	c #4B8438",
"C#	c #373138",
"D#	c #383938",
"E#	c #24321F",
"F#	c #49713B",
"G#	c #2B292C",
"H#	c #1A1919",
"I#	c #565457",
"J#	c #467436",
"K#	c #373B36",
"L#	c #1F1D20",
"M#	c #316D1D",
"N#	c #383539",
"O#	c #171818",
"P#	c #555455",
"Q#	c #333732",
"R#	c #447233",
"S#	c #323033",
"T#	c #1B141E",
"U#	c #32741B",
"V#	c #060706",
"W#	c #2E2930",
"X#	c #468231",
"Y#	c #2F2A31",
"Z#	c #1D1C1D",
"`#	c #24361D",
" $	c #264C19",
".$	c #343335",
"+$	c #171617",
"@$	c #535253",
"#$	c #2D2B2D",
"$$	c #3E6B2E",
"%$	c #31382E",
"&$	c #2E2D2E",
"*$	c #1A171B",
"=$	c #30701A",
"-$	c #150F16",
";$	c #141313",
">$	c #3E762B",
",$	c #2A282B",
"'$	c #171119",
")$	c #2F7118",
"!$	c #151116",
"~$	c #181717",
"{$	c #272328",
"]$	c #3E7D29",
"^$	c #261F28",
"/$	c #181618",
"($	c #254E17",
"_$	c #1D2F17",
":$	c #131213",
"<$	c #262527",
"[$	c #2F4626",
"}$	c #315127",
"|$	c #252425",
"1$	c #171817",
"2$	c #150E17",
"3$	c #2E7516",
"4$	c #120B14",
"5$	c #0F100F",
"6$	c #161516",
"7$	c #211A23",
"8$	c #3A7E24",
"9$	c #211B23",
"0$	c #151516",
"a$	c #192615",
"b$	c #245314",
"c$	c #121013",
"d$	c #211F22",
"e$	c #315C21",
"f$	c #263321",
"g$	c #130E14",
"h$	c #2B7113",
"i$	c #0F0911",
"j$	c #10100F",
"k$	c #1C161E",
"l$	c #35791E",
"m$	c #1C171E",
"n$	c #131612",
"o$	c #266211",
"p$	c #0F0C10",
"q$	c #1C191D",
"r$	c #2E621D",
"s$	c #1F271C",
"t$	c #0F0B11",
"u$	c #276B10",
"v$	c #0E0B0F",
"w$	c #0F0E0F",
"x$	c #17111A",
"y$	c #32791A",
"z$	c #181918",
"A$	c #0F0F10",
"B$	c #111510",
"C$	c #24610F",
"D$	c #0C090D",
"E$	c #171518",
"F$	c #265117",
"G$	c #1E3217",
"H$	c #0D060F",
"I$	c #27710D",
"J$	c #0B060C",
"K$	c #111211",
"L$	c #120A15",
"M$	c #307E15",
"N$	c #120914",
"O$	c #0D0C0D",
"P$	c #142B0C",
"Q$	c #1C480C",
"R$	c #0A080A",
"S$	c #162212",
"T$	c #266013",
"U$	c #100C12",
"V$	c #09010C",
"W$	c #28790B",
"X$	c #06000A",
"Y$	c #0A0A09",
"Z$	c #0C0B0B",
"`$	c #3D3E3D",
" %	c #0F0B10",
".%	c #225610",
"+%	c #172B10",
"@%	c #0F0D0F",
"#%	c #0B0C0B",
"$%	c #07000A",
"%%	c #236E0A",
"&%	c #0A0D09",
"*%	c #0E0E0D",
"=%	c #0C030F",
"-%	c #28750E",
";%	c #0F140D",
">%	c #090A09",
",%	c #080209",
"'%	c #1B4D09",
")%	c #143109",
"!%	c #080608",
"~%	c #297B0C",
"{%	c #0E160C",
"]%	c #0A070B",
"^%	c #070009",
"/%	c #194908",
"(%	c #154106",
"_%	c #050006",
":%	c #226609",
"<%	c #194809",
"[%	c #080609",
"}%	c #060208",
"|%	c #060307",
"1%	c #216D07",
"2%	c #113206",
"3%	c #030005",
"4%	c #070109",
"5%	c #0F2508",
"6%	c #216907",
"7%	c #1E6007",
"8%	c #1C5B07",
"9%	c #1E6206",
"0%	c #1E6005",
"a%	c #040305",
"b%	c #040504",
"c%	c #020101",
"d%	c #131212",
"e%	c #020005",
"f%	c #030004",
"g%	c #040005",
"h%	c #050605",
"i%	c #0D0E0D",
"j%	c #141415",
"k%	c #121312",
"l%	c #101111",
"m%	c #0A0A0B",
"n%	c #030302",
"o%	c #020303",
"p%	c #000001",
"q%	c #0E0D0E",
"r%	c #191A1A",
"s%	c #1C1B1B",
"t%	c #1C1D1C",
"u%	c #1E1E1F",
"v%	c #222221",
"w%	c #232223",
"x%	c #222322",
"y%	c #242423",
"z%	c #212122",
"A%	c #1E1E1D",
"B%	c #19191A",
"C%	c #181817",
"D%	c #1C1D1D",
"E%	c #1F1F1E",
"F%	c #1F1E1F",
"G%	c #1A1A1B",
"            . + @ # $ @ % & * = - ; ; > , , , ' ) ) . . . . ! ~ { ~ { ] ] ^ ^ ^ / ( _ : : < [ [ } | | 1 2 3 3 4 5 6             ",
"        ~ 7 8 9 0 9 # 0 @ @ & a * = = = - - - + + ; ; b > > , > ' ' ) c c c c ! ! ! ~ ~ { { d ] ] e / / ( ( } 3 f g h i         ",
"      j # $ 9 8 + [ k l 5 m n o p q r s t 6 u v w x y z z A B t C D E F G H I I J K L M N O P P Q R S T U V L W ( 1 X Y Z       ",
"    + @ % 8 ( D ` V  ...+.@.#.$.$.%.&.*.=.-.;.>.,.'.).!.~.{.].^./.(._.:.<.[.}.|.1.2.3.4.5.6.7.8.9.0.a.b.c.d.e.c.f.g.3 X n h.    ",
"  2 & * % i S T S i.i. ...j.@.k.l.g.m.n.*.o.^.p.q.r.'.).s.t.{.o.u.v.w.x.y.z.<.[.A.|.B.C.D.E.F.f.G.8.H.I.J.K.c.e.L.M.N.A 5 s K   ",
"  = > & x T S R T i.V ..j.+.@.O.l.g.%.&.*.P.-.;.>.r.'.).!.~.Q.P.u.v.w.x.y.R.<.S.T.U.V.C.W.E.X.f.Y.8.H.Z.`. +c..+++L.@+#+o t 6   ",
"m ' ) 2 T R R T i.i.V ..+.$+k.#.l.m.n.&.o.=.p.q.%+,.'./.!.~.Q.P.).&+w.(.*+R.=+}.|.-+B.C.W.;+6.7.>+,+H.Z.J. +d.e.'+L.)+!+~+p {+$+",
"f ] ' G U T U i.V  . .j.$+k.#.#.$.%.&.]+o.^.p.q.r.'.)./.^+/+(+=./.w.x.y.z.<._+A.|.-+2.3.4.;+6.:+>+N.<+Z.`. +d.e.'+L.@+[+}+|+A 1+",
"2+: } R i.i.V  . ...j.+.k.O.#.g.m.&.]+o.=.p.;.>.r.'./.!.t.{.3+^./.w.x.y.z.<.[.T.U.1.2.D.E.5.f.G.>+N.0.a.b.4+5+e.'+6+@+#+7+u.8+M ",
"X 1 l  .V V  ...j.+.$+@.O.l.$.m.n.&.*.P.^.p.>.r.9+u./.^+/+0+3+-.!.a+(.:.R.=+S.|.U.V.C.W.b+c+d+e+f+g+I.J.K.4+5+h+i+6+j+#+k+-+D 1+",
"m l+u +.....j.j.+.@.k.#.l.g.m.%.&.*.P.=.p.q.%+,.u./.!.~.{.Q.m+;.!.(._.z.<._+A.U.-+2.n+o+p+q+r+s+t+u+v+`.K.w+5+++L.x+j+y+z+7.A+R ",
"r 4 x $+j.$+$+@.@.O.O.l.$.m.%.&.]+o.^.-.q.>.r.9+).s.^+/+0+3+&+q.t._.*+R.=+[.T.U.V.B+C+D+E+F+G+H+I+J+K+L+M+d.e.++L.)+[+N+z+>+K V ",
"6 k z O.@.k.O.O.l.l.$.g.m.%.]+*.o.^.-.;.>.%+9+)./.^+~.0+Q.].&+>.~.y.z.<._+}.|.-+O+P+Q+R+6.:+Y.,+9.S+T+U+V+W+h+'+x+)+#+!+z+,+O $+",
"i o B l.#.#.l.l.$.g.m.%.n.]+*.o.=.-.;.%+r.9+u./.^+~./+Q.].m+a+r.{.:.R._+S.T.U.X+Y+Z+`+5.6.G.>+N.<+Z.`. @.@+@h+i+x+@+#+!+z+9.S l.",
"@@s #@m.g.$.g.m.m.n.n.&.*.o.=.^.-.;.>.%+,.u./.!.t./+Q.3+m+v.x.r.Q.R.<.[.}.U.-+O+$@%@;+F.:+Y.8.9.0.J.b.V+&@*@=@L.x+@+y+!+-@<+ .%.",
"#@v E n.%.%.n.n.&.]+*.P.P.=.-.p.q.>.,.9+u.s.^+~./+0+(+;@v.w._.9+3+=+[.S.|.U.>@,@'@;+5.f.G.>+9.H.Z.`.K.4+)@!@~@{@)+[+N+]@^@I.@.P.",
"F {+G *.&.&.]+]+o.o.P.=.^.-.;.>.r.,.'.u.s.!.t./+0+(+m+v.w.(.*+).]._+S.T.U.X+/@(@_@5.6.f.Y.8.9.0.a.b.4+w+e.:@<@[@j+#+}@}@^@Z.$.;.",
"I |+|@=.o.P.P.=.^.^.-.p.q.q.%+,.,.'.)./.!.~.{.0+3+m+v.w.x._.R./.m+S.A.U.V.1@2@3@;+F.f.G.>+9.<+I.`.K.4+d.h+i+4@5@6@N+}@]@7@J.n.r.",
"M F J p.-.^.-.-.p.;.;.q.%+r.9+9+).).!.t./+{.Q.3+m+v.w.x._.*+<.!.&+A.|.1.8@9@0@;+X.6.7.>+N.H.0.J.K. +d..+++i+[@a@b@!+]@k+7@`.=.).",
"O c@L q.;.;.;.q.>.%+r.,.9+'.u./.s.^+t./+0+0+3+m+v.w.x.y.:.R._+t.x.|.-+B.d@e@f@5.6.:+Y.8.9.0.Z.`. +c.5+h+i+x+M.g@h@i@]@-@7@K.q.t.",
"T M N ,.%+r.r.,.,.9+'.'.u./.s.!.t./+{.Q.Q.].m+v.a+(.y.:.z.=+}.{._.-+B.j@k@l@m@6.f.Y.8.9.<+I.`.K.4+d..+++L.x+@+n@o@p@q@^@}+4+9+Q.",
"r@P P u.'.'.'.'.).).).s.s.!.t./+/+0+Q.3+m+v.&+x.(.y.z.R.=+S.|.Q.*+2.C.s@t@u@F.f.G.8.N.H.I.a.b.4+w+5+h+i+6+M.j+#+v@w@x@^@}+w+!.m+",
"k.T R s././././.s.!.!.^+~./+{.0+Q.3+].v.&+w.x._.*+z.R.=+S.A.-+].z.3.y@z@A@B@:+7.Y.N.H.0.Z.`. +c.5+e.'+L.x+)+[+N+C@D@E@7+F@5+0+x.",
"g.j.U ~.^+^+t.t.~./+{.{.{.Q.(+3+;@v.v.w.x.(.y.:.R.<.[.S.T.|.V.;@=+G@H@I@J@f.G.>+,+9.0.Z.J. +4+d..+++L.x+)+j+y+}@K@L@M@N@F@e.].:.",
"O@O. .{.~./+/+{.{.0+Q.(+(+].m+v.v.w.a+x.y.*+z.R._+[.}.|.U.1.C.&+[.;+P@Q@R@7.Y.,+H.<+Z.J.b.4+w+5+h+i+6+M.@+[+N+}@]@S@T@U@F@++w.=+",
"^.m.+.3+Q.(+(+(+3+3+;@m+m+v.&+w.a+x._.y.:.R.<._+[.}.|.U.1.B.D.a+}.V@W@X@7.Y.8.9.<+I.J.b.4+w+5+h+'+i+x+@+j+#+}@]@k+Y@Z@`@ #'+_.}.",
">.*.k.m+].].;@m+m+m+v.v.&+w.a+(._.*+:.R.<._+[.S.T.U.1.1.2.C.4._.|..#+#@#>+8.9.H.I.a.`. +w+d..+++L.x+M.j+#+N+}@]@7+^@U@## #i+<.-+",
").^.l.w.v.&+&+w.w.a+a+x.(._.y.*+z.z.R.=+_+S.}.T.U.-+V.2.3.4.5._.$#%#&#*#8.N.<+I.a.`.K.4+d..+h+'+6+M.@+j+N+}@}@z+^@7@=#-# #6+S.B.",
"3+/.g.(.x.a+x.x.(.(._.y.y.:.z.R.<.=+[.S.}.T.U.-+1.2.C.D.4.E.F.:.;#>#,#8.H.H.I.a.b.K.c.w+.+h+'+L.M.@+[+#+!+]@k+^@7@7@ #'#)#!#-+:+",
"&+{.p.<._.y.y.*+:.:.z.R.R.<.=+=+[.S.A.A.|.-+1.B.2.3.W.E.;+F.:+<.~#{#]#9.<+I.a.`.K.4+d.5+e.'+i+x+)+@+#+!+]@k+-@^@7@}+ # #^#6@X.,+",
"(.].q.U.A.=+z.R.R.R.<.=+_+_+[.}.A.T.|.-+1.V.2.3.3.4.;+;+X.6.G./#(#_#:#<+I.Z.`. +4+w+.+h+++L.x+)+j+[+y+}@]@z+^@7@7@ # # #<#[#f.9.",
"z.w.r.V.-+1.-+}.[.S.S.}.A.T.|.|.-+1.B.2.C.3.D.4.;+5.F.f.:+G.,+}#|#1#0.Z.J.K. +c.5+.+h+++6+M.)+[+#+y+}@]@z+7+7@}+F@ # # #2#3#4#0.",
"R.5#6#}.[.[.S.S.}._+R.:.R.<.=+_+[.S.S.A.T.U.-+V.B.C.3.3.W.E.5.7#8#9#G.Y.8.,+N.<+I.a.`.b. +c.w+5+5+h+'+i+L.x+@+#+#+N+N+N+0#a#b#J.",
"[.c#d#e#'.'.'.'.u.u.).).'.,.r.,.,.9+'.u.)./.s.^+^+t.~.{.0+Q.f#g#h#i#&+&+a+x._.y.:.:.z.<.=+=+[.S.A.T.|.-+2.D.W.W.4.4.4.4.j#k#l#h+",
"6+R@m#n#_@;+;+5.5.X.X.F.F.6.f.f.F.X.X.F.6.:+7.G.>+,+N.H.0.I.o#p#q#4+4+d.5+h+++i+L.M.@+j+y+N+}@z+-@7@ #F@ # # # # # # # # #r#s#x+",
")+6+t#u#v#;+;+;+;+5.5.X.F.6.f.:+7.G.Y.>+Y.Y.Y.>+8.8.,+9.H.w#x#y#z#K. +w+d.5+e.'+i+M.)+j+y+!+]@]@k+^@^@7@7@}+ # # # # # # #z+h+6+",
")+i+A#B#C#D#X.F.6.6.6.f.f.:+7.G.Y.>+>+8.N.H.<+0.Z.a.J.`.b.M+E#F#G#.+e.++'+6+x+M.j+[+#+y+!+}@]@k+^@7+7+}+}+F@ # # # # # # #z+H#6+",
")+i+I#J#K#f.f.:+f.:+7.7.Y.Y.>+>+8.,+N.H.H.0.I.Z.a.`.b. +4+L#M#N#Z.h+'+i+6+x+M.@+[+[+y+N+}@}@k+-@^@7+}+}+F@ # # # # # # # #z+++6+",
")+O#P#Q#R#S#G.Y.Y.Y.>+>+>+8.,+N.9.H.H.0.I.Z.Z.J.`.K. +4+c.T#U#F+a.i+i+6+x+M.j+j+[+y+N+]@}@k+-@^@^@7@7@}+ # # # # # # # # #V#++6+",
"@+i+*+W#X#Y#>+>+8.8.,+N.N.9.H.H.<+I.I.Z.Z.J.`.b. +4+c.d.Z#`# $.$`.L.6+x+)+@+j+[+y+N+]@}@]@-@^@^@7@7@}+ # # # # # # # # # #-@++x+",
"@++$@$#$$$%$&$9.9.9.H.H.<+<+I.I.Z.Z.a.`.b.b. +4+4+w+d.5+*$=$-$G.K.x+x+)+j+[+#+y+N+}@}@]@-@^@^@7@7@}+F@ # # # # # # # # # #-@'+;$",
"@+i+R.0.G#>$,$<+<+0.0.I.Z.Z.Z.a.J.`.b.K.4+4+4+w+d.5+.+h+'$)$!$>+4+M.)+j+[+[+y+N+}@}@]@-@^@^@7@}+}+F@ # # # # # # # # # # #-@~$M.",
"j+i+<.Z.{$]$^$I.Z.Z.Z.a.J.`.`.b.b. + +4+4+w+d.5+.+e.h+/$($_$:$8.c.@+j+[+y+N+N+]@}@]@z+^@^@7@}+}+F@ # # # # # # # # # # # #-@L.M.",
"@+L._+`.<$[$}$|$`.`.`.b.K.K. +4+4+4+c.w+d.5+.+e.h+'+1$2$3$4$)+N.d.[+[+y+N+}@}@}@k+-@^@^@7@}+}+F@ # # # # # # # # # # # # #-@L.M.",
"5$6$[. +K.7$8$9$K. + +4+4+4+4+w+w+d.d.5+e.h+h+'+'+i+0$a$b$c$j+H.e.#+y+N+}@]@}@k+-@^@^@7@}+}+F@ # # # # # # # # # # # # # #-@6+)+",
"[+6+}.c. +d$e$f$V+4+c.c.w+d.d.5+5+.+e.h+h+'+'+i+L.6+g$h$i$@+#+0.h+N+N+}@]@]@k+-@^@^@7@}+}+F@ # # # # # # # # # # # # # # #^@x+@+",
"j$6+A.5+w+d.k$l$m$d.d.5+5+.+e.e.h+h+'+'+i+i+L.6+x+M.n$o$p$[+N+Z.'+}@}@}@]@z+^@7+7+7@7@}+F@ # # # # # # # # # # # # # # # #^@x+@+",
"[+6+T.e..+5+q$r$s$e.e.e.h+h+++'+'+'+i+L.6+x+x+M.)+t$u$v$w$y+!+Z.L.]@]@]@-@^@7+^@7@7@}+F@ # # # # # # # # # # # # # # # # #^@)+j+",
"#+x+|.'+h+h+h+x$y$'$z$'+'+i+i+i+L.6+6+x+x+M.@+@+A$B$C$D$y+N+]@J.6+]@z+-@^@^@7+}+7@}+F@ # # # # # # # # # # # # # # # # # #7+)+j+",
"#+x+-+L.i+i+i+E$F$G$+$i+L.6+6+x+x+x+M.)+@+j+j+[+H$I$J$N+!+}@k+b.x+-@^@7+7+7@}+}+}+ # # # # # # # # # # # # # # # # # # # #7+K$j+",
"y+)+1.M.6+6+6+6+L$M$N$x+x+x+M.)+)+@+j+j+[+[+#+O$P$Q$R$}@]@}@z+ +)+7+^@7+7@7@}+F@ # # # # # # # # # # # # # # # # # # # # #7+@+j+",
"N+)+B.)+x+x+x+x+M.S$T$U$)+@+j+j+[+j+[+#+y+y+N+V$W$X$Y$]@]@z+7+4+j+7+7@}+}+}+ # # # # # # # # # # # # # # # # # # # # # # #7+j$[+",
"Z$@+`$[+@+@+@+j+j+ %.%+%@%j+[+[+#+y+y+N+N+#%$%%%&%]@]@z+-@^@7@c.[+}+7@}+F@ # # # # # # # # # # # # # # # # # # # # # # # #7@[+#+",
"!+*%>+[+[+j+j+[+[+[+=%-%;%O$N+y+N+N+!+}@>%,%'%)%!%z+-@^@7+^@}+w+#+}+}+ # # # # # # # # # # # # # # # # # # # # # # # # # #7+#+y+",
"N+N+K.[+y+y+N+y+y+N+N+V$~%{%]%}@}@]@}@}@^%/%(%_%^@^@7+^@7@7@F@5+y+ # # # # # # # # # # # # # # # # # # # # # # # # # # # #z+N+y+",
"}@}@0$y+!+N+!+!+!+!+}@}@$%:%<%$%C@[%}%|%1%2%3%^@^@7+7+7@7@}+ #5+!+ # # # # # # # # # # # # # # # # # # # # # # # # # # # #}@!+}@",
"k+]@)+N+]@]@]@]@}@}@}@}@]@4%5%6%7%8%9%0%a%Y@b%7@7@}+7@}+}+F@ #.+!+ # # # # # # # # # # # # # # # # # # # # # # # # # # #c%y+}@k+",
"7@}@N+d%k+]@]@]@k+z+z+-@z+-@a%3%e%f%N@g%r#7@}+}+}+}+}+F@ # # #h+}@ # # # # # # # # # # # # # # # # # # # # # # # # # # #]@N+!+7@",
"  k+]@)+[+^@-@^@^@^@^@^@^@7+^@^@7+7@7@}+}+7@}+}+F@ # # # # # #h+}@ # # # # # # # # # # # # # # # # # # # # # # # # # #h%i%!+]@  ",
"   #!+}@j%k%-@7@7+7+7+7+7@7@7@}+}+}+}+}+}+F@ # # # # # # # # #h+}@ # # # # # # # # # # # # # # # # # # # # # # # #F@}@[+N+N+ #  ",
"    F@!+}@l%'+M.m%-@7@7@7@7@7@7@7@n%o%7@}+}+}+}+}+}+}+}+}+}+F@6$]@}+}+}+}+}+F@}+F@F@F@F@F@ # # # #p%F@F@ # #F@-@N+j+j+O$q%F@    ",
"       #}@y+N+j+6+i+i+'+r%s%.+t%5+u%c.c.v%w%K. +x%K.y%b.b.b.b.v%z%K.K. + + +4+c.c.w+d.A%5+.+e.h+B%C%i+L.6+x+M.)+@+j$#+!+ #      ",
"         #7@}@#+j+@+)+x+x+L.i+i+i+'+++h+h+.+5+t%D%5+W+E%w+w+w+w+w+w+w+w+w+w+F%d.5+5+5+.+.+G%h+++'+i+'+i+L.x+x+M.j+!+7@ #        ",
"             # # # # # # # # # # # # # # # # # # # # # # # # # # # # # # # # # # # # # # # # # # # # # # # # # # # #            "};
