/* XPM */
static const char *left_xpm[]={
"20 28 4 1",
". c None",
"b c #808080",
"a c #c0c0c0",
"# c #ffffff",
"....................",
"...............#a...",
"..............#aabb.",
".............#aaabb.",
"............#aaaabb.",
"...........#aaaaabb.",
"..........#aaaaaabb.",
".........#aaaaaaabb.",
"........#aaaaaaaabb.",
".......#aaaaaaaaabb.",
"......#aaaaaaaaaabb.",
".....#aaaaaaaaaaabb.",
"....#aaaaaaaaaaaabb.",
"...#aaaaaaaaaaaaabb.",
"....aaaaaaaaaaaaabb.",
".....aaaaaaaaaaaabb.",
"......aaaaaaaaaaabb.",
".......aaaaaaaaaabb.",
"........aaaaaaaaabb.",
".........aaaaaaaabb.",
"..........aaaaaaabb.",
"...........aaaaaabb.",
"............aaaaabb.",
".............aaaabb.",
"..............aaabb.",
"...............aabb.",
"................abb.",
".................bb."};
