/* XPM */
static const char *right_xpm[]={
"20 28 4 1",
". c None",
"b c #808080",
"a c #c0c0c0",
"# c #ffffff",
"....................",
"...###..............",
"...#aa#.............",
"...#aaa#............",
"...#aaaa#...........",
"...#aaaaa#..........",
"...#aaaaaa#.........",
"...#aaaaaaa#........",
"...#aaaaaaaa#.......",
"...#aaaaaaaaa#......",
"...#aaaaaaaaaa#.....",
"...#aaaaaaaaaaa#....",
"...#aaaaaaaaaaaa#...",
"...#aaaaaaaaaaaaa#..",
"...#aaaaaaaaaaaaab..",
"...#aaaaaaaaaaaabb..",
"...#aaaaaaaaaaabb...",
"...#aaaaaaaaaabb....",
"...#aaaaaaaaabb.....",
"...#aaaaaaaabb......",
"...#aaaaaaabb.......",
"...#aaaaaabb........",
"...#aaaaabb.........",
"...#aaaabb..........",
"...#aaabb...........",
"...#aabb............",
"....abb.............",
"...................."};
