/* XPM */
static const char *up_xpm[]={
"28 20 4 1",
". c None",
"b c #808080",
"a c #c0c0c0",
"# c #ffffff",
"............................",
"............................",
"............##..............",
"...........##aa.............",
"..........##aaaa............",
".........##aaaaaa...........",
"........##aaaaaaaa..........",
".......##aaaaaaaaaa.........",
"......##aaaaaaaaaaaa........",
".....##aaaaaaaaaaaaaa.......",
"....##aaaaaaaaaaaaaaaa......",
"...##aaaaaaaaaaaaaaaaaa.....",
"..##aaaaaaaaaaaaaaaaaaaa....",
".##aaaaaaaaaaaaaaaaaaaaaa...",
".#aaaaaaaaaaaaaaaaaaaaaaaa..",
".#aaaaaaaaaaaaaaaaaaaaaaaab.",
".#bbbbbbbbbbbbbbbbbbbbbbbbb.",
"..bbbbbbbbbbbbbbbbbbbbbbbbb.",
"............................",
"............................"};
